<svg width="99" height="128" viewBox="0 0 99 128" xmlns="http://www.w3.org/2000/svg"><path d="M.2 20.7L2.42 6h2.64l2.22 14.7h-2.1l-.4-3H2.7l-.4 3zm3.66-9.92l-.06-.38h-.12l-.06.38L3 15.42h1.48zM8.28 6h2.16c.94 0 1.88.24 2.6.92.72.68 1.2 1.8 1.2 3.48s-.48 2.78-1.2 3.46c-.72.68-1.66.96-2.6.96v5.88H8.28zm2.16 6.62c.66 0 1.08-.12 1.32-.46.24-.32.3-.86.3-1.68s-.06-1.4-.3-1.76c-.24-.36-.66-.52-1.32-.52zM15.32 6h2.16c.94 0 1.88.24 2.6.92.72.68 1.2 1.8 1.2 3.48s-.48 2.78-1.2 3.46c-.72.68-1.66.96-2.6.96v5.88h-2.16zm2.16 6.62c.66 0 1.08-.12 1.32-.46.24-.32.3-.86.3-1.68s-.06-1.4-.3-1.76c-.24-.36-.66-.52-1.32-.52zm7.2-4.4V6h6.24v2.22h-2.04V20.7h-2.16V8.22zm6.04 12.48L32.94 6h2.64l2.22 14.7h-2.1l-.4-3h-2.08l-.4 3zm3.66-9.92l-.06-.38h-.12l-.06.38-.62 4.64H35zm8.28 9.92l-1.12-6.2h-.58v6.2H38.8V6h2.16c2.58 0 3.68 1.46 3.68 4.24 0 1.46-.38 2.78-1.2 3.34l1.38 7.12zm-1.7-8.2c.3 0 .7-.04 1.02-.32.32-.28.58-.82.58-1.86s-.26-1.6-.58-1.88c-.32-.28-.72-.3-1.02-.3zm8.52-1.22V9.02c0-.4-.08-.68-.28-.92-.1-.1-.26-.16-.44-.16-.38 0-.56.28-.64.54-.06.16-.08.34-.08.54v8.84c0 .42.1.7.3.92.1.1.24.16.42.16.38 0 .56-.24.64-.54.06-.14.08-.32.08-.54V15.2h-.86v-1.82h3.02v7.32h-1.28l-.26-.7c-.4.5-.98.86-1.68.86s-1.18-.18-1.54-.5c-.36-.3-.6-.68-.76-1.08-.18-.46-.26-1-.24-1.6V9.02c.02-.58.14-1.12.36-1.58.18-.4.44-.8.84-1.1.4-.3.96-.5 1.68-.5s1.26.2 1.66.5c.4.3.68.7.86 1.1.22.46.34 1 .36 1.58v2.26zM53.22 6h4.94v2.22h-2.78v3.86h2v2.36h-2v4.04h2.78v2.22h-4.94zm5.38 2.22V6h6.24v2.22H62.8V20.7h-2.16V8.22zm7 1.54h2.1v2.22h-2.1zm0 8.72h2.1v2.22h-2.1z" fill="#d40e7e"/></svg>