<svg width="99" height="128" viewBox="0 0 99 128" xmlns="http://www.w3.org/2000/svg"><path d="M5.94 8.22H2.96v3.86h2v2.22h-2v6.4H.8V6h5.14zm6.5 9.46c-.02.6-.14 1.14-.36 1.6-.18.4-.46.78-.86 1.08-.4.32-.94.5-1.66.5s-1.28-.18-1.68-.5c-.4-.3-.66-.68-.84-1.08-.22-.46-.34-1-.36-1.6V9.02c.02-.58.14-1.12.36-1.58.18-.4.44-.8.84-1.1.4-.3.96-.5 1.68-.5s1.26.2 1.66.5c.4.3.68.7.86 1.1.22.46.34 1 .36 1.58zm-2.16-8.66c0-.4-.08-.68-.28-.92-.1-.1-.26-.16-.44-.16-.38 0-.56.28-.64.54-.06.16-.08.34-.08.54v8.66c0 .42.1.7.3.92.1.1.24.16.42.16.38 0 .56-.24.64-.54.06-.14.08-.32.08-.54zm9.24 8.66c-.02.6-.14 1.14-.36 1.6-.18.4-.46.78-.86 1.08-.4.32-.94.5-1.66.5s-1.28-.18-1.68-.5c-.4-.3-.66-.68-.84-1.08-.22-.46-.34-1-.36-1.6V9.02c.02-.58.14-1.12.36-1.58.18-.4.44-.8.84-1.1.4-.3.96-.5 1.68-.5s1.26.2 1.66.5c.4.3.68.7.86 1.1.22.46.34 1 .36 1.58zm-2.16-8.66c0-.4-.08-.68-.28-.92-.1-.1-.26-.16-.44-.16-.38 0-.56.28-.64.54-.06.16-.08.34-.08.54v8.66c0 .42.1.7.3.92.1.1.24.16.42.16.38 0 .56-.24.64-.54.06-.14.08-.32.08-.54zm2.66-.8V6h6.24v2.22h-2.04V20.7h-2.16V8.22zM27.1 6h2.16c.94 0 1.88.24 2.6.92.72.68 1.2 1.8 1.2 3.48s-.48 2.78-1.2 3.46c-.72.68-1.66.96-2.6.96v5.88H27.1zm2.16 6.62c.66 0 1.08-.12 1.32-.46.24-.32.3-.86.3-1.68s-.06-1.4-.3-1.76c-.24-.36-.66-.52-1.32-.52zM38 20.7l-1.12-6.2h-.58v6.2h-2.16V6h2.16c2.58 0 3.68 1.46 3.68 4.24 0 1.46-.38 2.78-1.2 3.34l1.38 7.12zm-1.7-8.2c.3 0 .7-.04 1.02-.32.32-.28.58-.82.58-1.86s-.26-1.6-.58-1.88c-.32-.28-.72-.3-1.02-.3zM41.36 6h2.16v14.7h-2.16zm6.04 7.04l-.18-.68h-.12v8.34h-1.98V6h1.92l2.1 7.66.18.68h.12V6h1.98v14.7H49.5zm4.86-4.82V6h6.24v2.22h-2.04V20.7H54.3V8.22zm7 1.54h2.1v2.22h-2.1zm0 8.72h2.1v2.22h-2.1z" fill="#056464"/></svg>