<svg width="99" height="128" viewBox="0 0 99 128" xmlns="http://www.w3.org/2000/svg"><path d="M4.38 9.94c0-.48-.02-1.02-.16-1.44-.14-.4-.36-.68-.7-.68-.56.02-.74.6-.74 1.46 0 .5.22 1.02.54 1.58.32.56.74 1.14 1.16 1.76.5.74 1 1.5 1.38 2.24.38.74.64 1.5.64 2.3 0 .98-.16 1.9-.62 2.58-.46.68-1.2 1.12-2.38 1.12-1.38 0-2.16-.52-2.6-1.32-.44-.8-.54-1.86-.54-2.96l2.12-.2c0 .62.02 1.24.18 1.7.14.48.38.8.84.8.64 0 .88-.68.88-1.62 0-.48-.24-1.04-.56-1.62-.18-.28-.36-.58-.56-.88-.42-.6-.88-1.28-1.36-2.02-.48-.74-.84-1.5-1.06-2.28-.12-.38-.18-.78-.18-1.18 0-.8.18-1.66.64-2.32.46-.64 1.16-1.1 2.18-1.12 1.3-.02 2.06.52 2.48 1.3.42.8.54 1.78.54 2.6zm6.86 10.76l-1.38-9.24-.08-.62h-.12v9.86h-2V6h2.64l1.28 6.72.1.78h.04l.1-.78L13.1 6h2.64v14.7h-2v-9.86h-.12l-.08.62-1.38 9.24zm5.5 0L18.96 6h2.64l2.22 14.7h-2.1l-.4-3h-2.08l-.4 3zm3.66-9.92l-.06-.38h-.12l-.06.38-.62 4.64h1.48zm8.28 9.92l-1.12-6.2h-.58v6.2h-2.16V6h2.16c2.58 0 3.68 1.46 3.68 4.24 0 1.46-.38 2.78-1.2 3.34l1.38 7.12zm-1.7-8.2c.3 0 .7-.04 1.02-.32.32-.28.58-.82.58-1.86s-.26-1.6-.58-1.88c-.32-.28-.72-.3-1.02-.3zm4.3-4.28V6h6.24v2.22h-2.04V20.7h-2.16V8.22zM41.44 6h2.16c.94 0 1.88.24 2.6.92.72.68 1.2 1.8 1.2 3.48s-.48 2.78-1.2 3.46c-.72.68-1.66.96-2.6.96v5.88h-2.16zm2.16 6.62c.66 0 1.08-.12 1.32-.46.24-.32.3-.86.3-1.68s-.06-1.4-.3-1.76c-.24-.36-.66-.52-1.32-.52zM48.48 6h2.16v14.7h-2.16zm5.24 14.7H51.6l2.38-7.72L51.64 6h2.12l1.18 3.72.06.18h.08l.06-.18L56.32 6h2.12l-2.34 6.98 2.38 7.72h-2.12l-1.24-4.38-.04-.18H55l-.04.18zM59.44 6h4.94v2.22H61.6v3.86h2v2.36h-2v4.04h2.78v2.22h-4.94zm6.14 0h2.16v12.7h2.86v2h-5.02zm5.82 3.76h2.1v2.22h-2.1zm0 8.72h2.1v2.22h-2.1z" fill="#056464"/></svg>