<svg width="99" height="128" viewBox="0 0 99 128" xmlns="http://www.w3.org/2000/svg"><path d="M4.66 20.7l-1.12-6.2h-.58v6.2H.8V6h2.16c2.58 0 3.68 1.46 3.68 4.24 0 1.46-.38 2.78-1.2 3.34l1.38 7.12zm-1.7-8.2c.3 0 .7-.04 1.02-.32.32-.28.58-.82.58-1.86s-.26-1.6-.58-1.88c-.32-.28-.72-.3-1.02-.3zM8.02 6h4.94v2.22h-2.78v3.86h2v2.36h-2v4.04h2.78v2.22H8.02zm9.72 14.7l-1.38-9.24-.08-.62h-.12v9.86h-2V6h2.64l1.28 6.72.1.78h.04l.1-.78L19.6 6h2.64v14.7h-2v-9.86h-.12l-.08.62-1.38 9.24zm5.5 0L25.46 6h2.64l2.22 14.7h-2.1l-.4-3h-2.08l-.4 3zm3.66-9.92l-.06-.38h-.12l-.06.38-.62 4.64h1.48zm8.28 9.92l-1.12-6.2h-.58v6.2h-2.16V6h2.16c2.58 0 3.68 1.46 3.68 4.24 0 1.46-.38 2.78-1.2 3.34l1.38 7.12zm-1.7-8.2c.3 0 .7-.04 1.02-.32.32-.28.58-.82.58-1.86s-.26-1.6-.58-1.88c-.32-.28-.72-.3-1.02-.3zM40.7 6v5.14h.08l.1-.24 1.8-4.9h2.1l-1.98 4.84 2.24 9.86h-2.1l-1.5-6.4-.06-.3h-.06l-.12.3-.5 1.2v5.2h-2.16V6zm5.34 0h4.94v2.22H48.2v3.86h2v2.36h-2v4.04h2.78v2.22h-4.94zm5.38 2.22V6h6.24v2.22h-2.04V20.7h-2.16V8.22zM58.5 6h2.16v14.7H58.5zm6.04 7.04l-.18-.68h-.12v8.34h-1.98V6h1.92l2.1 7.66.18.68h.12V6h1.98v14.7h-1.92zm9.08-1.76V9.02c0-.4-.08-.68-.28-.92-.1-.1-.26-.16-.44-.16-.38 0-.56.28-.64.54-.06.16-.08.34-.08.54v8.84c0 .42.1.7.3.92.1.1.24.16.42.16.38 0 .56-.24.64-.54.06-.14.08-.32.08-.54V15.2h-.86v-1.82h3.02v7.32H74.5l-.26-.7c-.4.5-.98.86-1.68.86s-1.18-.18-1.54-.5c-.36-.3-.6-.68-.76-1.08-.18-.46-.26-1-.24-1.6V9.02c.02-.58.14-1.12.36-1.58.18-.4.44-.8.84-1.1.4-.3.96-.5 1.68-.5s1.26.2 1.66.5c.4.3.68.7.86 1.1.22.46.34 1 .36 1.58v2.26zm3.66-1.52h2.1v2.22h-2.1zm0 8.72h2.1v2.22h-2.1z" fill="#fab930"/></svg>