<svg width="116" height="128" viewBox="0 0 116 128" xmlns="http://www.w3.org/2000/svg"><path d="M.8 6h2.16v14.7H.8zm6.04 7.04l-.18-.68h-.12v8.34H4.56V6h1.92l2.1 7.66.18.68h.12V6h1.98v14.7H8.94zm4.86-4.82V6h6.24v2.22H15.9V20.7h-2.16V8.22zM18.78 6h4.94v2.22h-2.78v3.86h2v2.36h-2v4.04h2.78v2.22h-4.94zm10 14.7l-1.12-6.2h-.58v6.2h-2.16V6h2.16c2.58 0 3.68 1.46 3.68 4.24 0 1.46-.38 2.78-1.2 3.34l1.38 7.12zm-1.7-8.2c.3 0 .7-.04 1.02-.32.32-.28.58-.82.58-1.86s-.26-1.6-.58-1.88c-.32-.28-.72-.3-1.02-.3zm4.46 8.2L33.76 6h2.64l2.22 14.7h-2.1l-.4-3h-2.08l-.4 3zm3.66-9.92l-.06-.38h-.12l-.06.38-.62 4.64h1.48zm10.04 4.88v2.02c-.02.6-.14 1.14-.36 1.6-.18.4-.46.78-.86 1.08-.4.32-.94.5-1.66.5s-1.28-.18-1.68-.5c-.4-.3-.66-.68-.84-1.08-.22-.46-.34-1-.36-1.6V9.02c.02-.58.14-1.12.36-1.58.18-.4.44-.8.84-1.1.4-.3.96-.5 1.68-.5s1.26.2 1.66.5c.4.3.68.7.86 1.1.22.46.34 1 .36 1.58v2.02h-2.02V9.02c0-.4-.1-.68-.32-.92-.1-.1-.28-.16-.5-.16-.38 0-.56.28-.66.54-.06.16-.08.34-.1.54v8.66c.02.42.14.7.34.92.1.1.24.16.42.16.46 0 .64-.24.74-.54.06-.14.08-.32.08-.54v-2.02zm.54-7.44V6h6.24v2.22h-2.04V20.7h-2.16V8.22zM52.86 6h2.16v14.7h-2.16zm7.68 0h2.1L60.4 20.7h-2.16L56 6h2.1l1.08 8.08.08.62h.12l.08-.62zm3.08 0h4.94v2.22h-2.78v3.86h2v2.36h-2v4.04h2.78v2.22h-4.94zm8.62 14.7L74.46 6h2.64l2.22 14.7h-2.1l-.4-3h-2.08l-.4 3zm3.66-9.92l-.06-.38h-.12l-.06.38-.62 4.64h1.48zm4.42 9.92V6h1.7c2 0 3.08.4 3.66 1.52.56 1.12.64 2.96.64 5.84s-.08 4.7-.64 5.82c-.58 1.12-1.66 1.52-3.66 1.52zm2.16-2.16c.74 0 1.16-.08 1.38-.8.1-.34.18-.86.2-1.56.02-.7.02-1.64.02-2.84s0-2.14-.02-2.84c-.02-.68-.1-1.2-.2-1.56-.22-.7-.64-.78-1.38-.78zm8.86-8.6c0-.48-.02-1.02-.16-1.44-.14-.4-.36-.68-.7-.68-.56.02-.74.6-.74 1.46 0 .5.22 1.02.54 1.58.32.56.74 1.14 1.16 1.76.5.74 1 1.5 1.38 2.24.38.74.64 1.5.64 2.3 0 .98-.16 1.9-.62 2.58-.46.68-1.2 1.12-2.38 1.12-1.38 0-2.16-.52-2.6-1.32-.44-.8-.54-1.86-.54-2.96l2.12-.2c0 .62.02 1.24.18 1.7.14.48.38.8.84.8.64 0 .88-.68.88-1.62 0-.48-.24-1.04-.56-1.62-.18-.28-.36-.58-.56-.88-.42-.6-.88-1.28-1.36-2.02-.48-.74-.84-1.5-1.06-2.28-.12-.38-.18-.78-.18-1.18 0-.8.18-1.66.64-2.32.46-.64 1.16-1.1 2.18-1.12 1.3-.02 2.06.52 2.48 1.3.42.8.54 1.78.54 2.6zm3.2-.18h2.1v2.22h-2.1zm0 8.72h2.1v2.22h-2.1z" fill="#232a54"/></svg>