<svg width="99" height="128" viewBox="0 0 99 128" xmlns="http://www.w3.org/2000/svg"><path d="M4.38 9.94c0-.48-.02-1.02-.16-1.44-.14-.4-.36-.68-.7-.68-.56.02-.74.6-.74 1.46 0 .5.22 1.02.54 1.58.32.56.74 1.14 1.16 1.76.5.74 1 1.5 1.38 2.24.38.74.64 1.5.64 2.3 0 .98-.16 1.9-.62 2.58-.46.68-1.2 1.12-2.38 1.12-1.38 0-2.16-.52-2.6-1.32-.44-.8-.54-1.86-.54-2.96l2.12-.2c0 .62.02 1.24.18 1.7.14.48.38.8.84.8.64 0 .88-.68.88-1.62 0-.48-.24-1.04-.56-1.62-.18-.28-.36-.58-.56-.88-.42-.6-.88-1.28-1.36-2.02-.48-.74-.84-1.5-1.06-2.28-.12-.38-.18-.78-.18-1.18 0-.8.18-1.66.64-2.32.46-.64 1.16-1.1 2.18-1.12 1.3-.02 2.06.52 2.48 1.3.42.8.54 1.78.54 2.6zM7.66 6h4.94v2.22H9.82v3.86h2v2.36h-2v4.04h2.78v2.22H7.66zm9.6 5.28V9.02c0-.4-.08-.68-.28-.92-.1-.1-.26-.16-.44-.16-.38 0-.56.28-.64.54-.06.16-.08.34-.08.54v8.84c0 .42.1.7.3.92.1.1.24.16.42.16.38 0 .56-.24.64-.54.06-.14.08-.32.08-.54V15.2h-.86v-1.82h3.02v7.32h-1.28l-.26-.7c-.4.5-.98.86-1.68.86s-1.18-.18-1.54-.5c-.36-.3-.6-.68-.76-1.08-.18-.46-.26-1-.24-1.6V9.02c.02-.58.14-1.12.36-1.58.18-.4.44-.8.84-1.1.4-.3.96-.5 1.68-.5s1.26.2 1.66.5c.4.3.68.7.86 1.1.22.46.34 1 .36 1.58v2.26zm7.32 9.42l-1.38-9.24-.08-.62H23v9.86h-2V6h2.64l1.28 6.72.1.78h.04l.1-.78L26.44 6h2.64v14.7h-2v-9.86h-.12l-.08.62-1.38 9.24zM30.68 6h4.94v2.22h-2.78v3.86h2v2.36h-2v4.04h2.78v2.22h-4.94zm8.42 7.04l-.18-.68h-.12v8.34h-1.98V6h1.92l2.1 7.66.18.68h.12V6h1.98v14.7H41.2zm4.86-4.82V6h6.24v2.22h-2.04V20.7H46V8.22zM50 20.7L52.22 6h2.64l2.22 14.7h-2.1l-.4-3H52.5l-.4 3zm3.66-9.92l-.06-.38h-.12l-.06.38-.62 4.64h1.48zm10.04 4.88v2.02c-.02.6-.14 1.14-.36 1.6-.18.4-.46.78-.86 1.08-.4.32-.94.5-1.66.5s-1.28-.18-1.68-.5c-.4-.3-.66-.68-.84-1.08-.22-.46-.34-1-.36-1.6V9.02c.02-.58.14-1.12.36-1.58.18-.4.44-.8.84-1.1.4-.3.96-.5 1.68-.5s1.26.2 1.66.5c.4.3.68.7.86 1.1.22.46.34 1 .36 1.58v2.02h-2.02V9.02c0-.4-.1-.68-.32-.92-.1-.1-.28-.16-.5-.16-.38 0-.56.28-.66.54-.06.16-.08.34-.1.54v8.66c.02.42.14.7.34.92.1.1.24.16.42.16.46 0 .64-.24.74-.54.06-.14.08-.32.08-.54v-2.02zm-2.12 7.5l-.44 1.3h-1.02l.4-1.3h-.62v-1.38h1.68zM65.8 3.28c.18-.14.42-.24.66-.32.12-.04.26-.06.4-.06.3 0 .6.06.88.16.28.12.58.2.88.22.3 0 .52-.08.74-.16.12-.06.22-.1.32-.16v1.48c-.18.16-.42.26-.66.32-.12.04-.26.06-.4.06-.3 0-.6-.06-.86-.18-.28-.12-.58-.18-.9-.2-.3 0-.52.08-.74.16-.12.06-.22.1-.32.16zm4.82 14.4c-.02.6-.14 1.14-.36 1.6-.18.4-.46.78-.86 1.08-.4.32-.94.5-1.66.5s-1.28-.18-1.68-.5c-.4-.3-.66-.68-.84-1.08-.22-.46-.34-1-.36-1.6V9.02c.02-.58.14-1.12.36-1.58.18-.4.44-.8.84-1.1.4-.3.96-.5 1.68-.5s1.26.2 1.66.5c.4.3.68.7.86 1.1.22.46.34 1 .36 1.58zm-2.16-8.66c0-.4-.08-.68-.28-.92-.1-.1-.26-.16-.44-.16-.38 0-.56.28-.64.54-.06.16-.08.34-.08.54v8.66c0 .42.1.7.3.92.1.1.24.16.42.16.38 0 .56-.24.64-.54.06-.14.08-.32.08-.54zM72.08 6h4.94v2.22h-2.78v3.86h2v2.36h-2v4.04h2.78v2.22h-4.94zm9.72 3.94c0-.48-.02-1.02-.16-1.44-.14-.4-.36-.68-.7-.68-.56.02-.74.6-.74 1.46 0 .5.22 1.02.54 1.58.32.56.74 1.14 1.16 1.76.5.74 1 1.5 1.38 2.24.38.74.64 1.5.64 2.3 0 .98-.16 1.9-.62 2.58-.46.68-1.2 1.12-2.38 1.12-1.38 0-2.16-.52-2.6-1.32-.44-.8-.54-1.86-.54-2.96l2.12-.2c0 .62.02 1.24.18 1.7.14.48.38.8.84.8.64 0 .88-.68.88-1.62 0-.48-.24-1.04-.56-1.62-.18-.28-.36-.58-.56-.88-.42-.6-.88-1.28-1.36-2.02-.48-.74-.84-1.5-1.06-2.28-.12-.38-.18-.78-.18-1.18 0-.8.18-1.66.64-2.32.46-.64 1.16-1.1 2.18-1.12 1.3-.02 2.06.52 2.48 1.3.42.8.54 1.78.54 2.6z" fill="#ed7348"/></svg>